<?xml version="1.0" encoding="UTF-8"?>
<svg version="1.1" xmlns="http://www.w3.org/2000/svg" width="82" height="102">
<path d="M0 0 C0.99 0.33 1.98 0.66 3 1 C2.125 7.75 2.125 7.75 1 10 C1.99 10 2.98 10 4 10 C4.33 8.68 4.66 7.36 5 6 C5.66 6 6.32 6 7 6 C7.91178479 8.48327269 8.81675003 10.96876443 9.71484375 13.45703125 C10.65289216 16.04307961 11.60457768 18.62207882 12.56640625 21.19921875 C17.71519506 35.16786421 17.71519506 35.16786421 18 43 C17.01 43 16.02 43 15 43 C13.70768535 39.29189216 12.4162638 35.58347389 11.125 31.875 C10.76019531 30.82828125 10.39539063 29.7815625 10.01953125 28.703125 C9.66503906 27.68476562 9.31054688 26.66640625 8.9453125 25.6171875 C8.45828857 24.21895752 8.45828857 24.21895752 7.96142578 22.79248047 C6.95466846 19.86833363 5.97796703 16.93390108 5 14 C5 22.91 5 31.82 5 41 C3.35 41 1.7 41 0 41 C0 32.09 0 23.18 0 14 C-0.66 15.98 -1.32 17.96 -2 20 C-3.32 19.67 -4.64 19.34 -6 19 C-4.3186083 12.51292846 -2.46937673 6.2322365 0 0 Z " fill="#272E7C" transform="translate(37,59)"/>
<path d="M0 0 C1.65 0.66 3.3 1.32 5 2 C3.58289983 6.22082524 1.52144778 9.01666022 -1.375 12.375 C-4.78334221 16.43098212 -7.59287882 20.29041508 -10 25 C-8.8553125 23.9790625 -8.8553125 23.9790625 -7.6875 22.9375 C-6.800625 22.298125 -5.91375 21.65875 -5 21 C-4.01 21.33 -3.02 21.66 -2 22 C-3.36983503 25.16115776 -3.9890638 25.9927092 -7 28 C-3.7 27.34 -0.4 26.68 3 26 C3.33 27.32 3.66 28.64 4 30 C1.89936424 30.69821417 -0.20565737 31.38324472 -2.3125 32.0625 C-3.48425781 32.44535156 -4.65601563 32.82820313 -5.86328125 33.22265625 C-9 34 -9 34 -12 33 C-12.33 31.35 -12.66 29.7 -13 28 C-13.33 28.66 -13.66 29.32 -14 30 C-15.32 29.67 -16.64 29.34 -18 29 C-16.52857508 24.78035817 -14.40297737 21.50434352 -11.8125 17.875 C-7.68266938 12.0330262 -3.78476078 6.07265475 0 0 Z " fill="#272E7C" transform="translate(61,21)"/>
<path d="M0 0 C1.765625 0.16796875 1.765625 0.16796875 4 1 C5.921875 3.36328125 5.921875 3.36328125 7.75 6.3125 C8.67039062 7.76076172 8.67039062 7.76076172 9.609375 9.23828125 C11 12 11 12 11 16 C12.92022703 17.77409808 12.92022703 17.77409808 15 19 C14.67 20.32 14.34 21.64 14 23 C4.17937763 19.50900677 -4.01647845 11.51150564 -12 5 C-11.67 3.68 -11.34 2.36 -11 1 C-5.33063081 4.58065422 -0.19537477 8.7697739 5 13 C3.79215074 10.42034003 2.71928556 8.6791835 0.8125 6.5 C-1 4 -1 4 -0.75 1.6875 C-0.5025 1.130625 -0.255 0.57375 0 0 Z " fill="#00A6CE" transform="translate(23,33)"/>
<path d="M0 0 C0.66 0 1.32 0 2 0 C2.91178479 2.48327269 3.81675003 4.96876443 4.71484375 7.45703125 C5.65289216 10.04307961 6.60457768 12.62207882 7.56640625 15.19921875 C12.71519506 29.16786421 12.71519506 29.16786421 13 37 C12.01 37 11.02 37 10 37 C8.72817133 33.35451313 7.45772143 29.70854717 6.1875 26.0625 C5.83107422 25.04091797 5.47464844 24.01933594 5.10742188 22.96679688 C4.40197911 20.9410759 3.69906647 18.91447192 2.9987793 16.88696289 C2.35887788 15.03733339 1.71249219 13.18992681 1.05786133 11.34545898 C0.78095459 10.55083252 0.50404785 9.75620605 0.21875 8.9375 C-0.14766602 7.90109375 -0.14766602 7.90109375 -0.52148438 6.84375 C-1.17169883 4.33843391 -0.8578949 2.41770381 0 0 Z " fill="#00A7CF" transform="translate(42,65)"/>
<path d="M0 0 C-1.17131275 3.51393826 -1.82035491 3.76612345 -4.875 5.625 C-8.70339991 8.06736039 -12.19578782 10.72081257 -15.6875 13.625 C-23.43333333 20.03833333 -23.43333333 20.03833333 -27 22 C-27.99 21.67 -28.98 21.34 -30 21 C-28.46075571 16.86093455 -25.77250219 15.09046488 -22.25 12.5625 C-17.35346037 9.02246292 -17.35346037 9.02246292 -12.6875 5.1875 C-4.47972973 -1.49324324 -4.47972973 -1.49324324 0 0 Z " fill="#00A7CF" transform="translate(30,65)"/>
<path d="M0 0 C4.29253976 1.30965628 8.58387886 2.62320374 12.875 3.9375 C14.09832031 4.31068359 15.32164063 4.68386719 16.58203125 5.06835938 C17.74863281 5.42607422 18.91523437 5.78378906 20.1171875 6.15234375 C21.73536377 6.6472229 21.73536377 6.6472229 23.38623047 7.15209961 C26 8 26 8 28 9 C27.67 10.32 27.34 11.64 27 13 C17.24726711 10.78459494 8.12345091 8.21614019 -1 4 C-0.67 2.68 -0.34 1.36 0 0 Z " fill="#272E7C" transform="translate(52,59)"/>
<path d="M0 0 C0.99 0 1.98 0 3 0 C1.82225863 9.58437802 -1.44808381 18.09787043 -5 27 C-6.32 27 -7.64 27 -9 27 C-8.3670307 23.54645774 -7.51355353 20.28390417 -6.40625 16.953125 C-6.09816406 16.02628906 -5.79007813 15.09945313 -5.47265625 14.14453125 C-5.15167969 13.18933594 -4.83070312 12.23414063 -4.5 11.25 C-4.17902344 10.27933594 -3.85804687 9.30867188 -3.52734375 8.30859375 C-3.21925781 7.38691406 -2.91117188 6.46523438 -2.59375 5.515625 C-2.31208984 4.67290039 -2.03042969 3.83017578 -1.74023438 2.96191406 C-1 1 -1 1 0 0 Z " fill="#00A7CF" transform="translate(52,13)"/>
<path d="M0 0 C8.91 0 17.82 0 27 0 C27 1.32 27 2.64 27 4 C18.09 4 9.18 4 0 4 C0 2.68 0 1.36 0 0 Z " fill="#00A7CF" transform="translate(54,55)"/>
<path d="M0 0 C0.99 0.33 1.98 0.66 3 1 C0.76270107 6.69494272 -4.18096027 9.18895876 -9.296875 11.98046875 C-11.26061453 13.09466283 -11.26061453 13.09466283 -13.75 15.3125 C-14.4925 15.869375 -15.235 16.42625 -16 17 C-16.99 16.67 -17.98 16.34 -19 16 C-17.49165609 11.70024042 -14.27590727 9.82184803 -10.625 7.4375 C-6.09117419 4.44772012 -6.09117419 4.44772012 -1.7734375 1.16015625 C-1.18820313 0.77730469 -0.60296875 0.39445312 0 0 Z " fill="#00A7CF" transform="translate(79,25)"/>
<path d="M0 0 C0.99 0 1.98 0 3 0 C4.00981089 2.72588833 5.00803308 5.45512264 6 8.1875 C6.28617188 8.95642578 6.57234375 9.72535156 6.8671875 10.51757812 C8.28784938 14.45822357 9.40963365 17.74151681 9 22 C7.10864258 21.72973633 7.10864258 21.72973633 5 21 C3.97924805 19.3894043 3.97924805 19.3894043 3.26171875 17.32421875 C2.99939453 16.57849609 2.73707031 15.83277344 2.46679688 15.06445312 C2.20962891 14.28005859 1.95246094 13.49566406 1.6875 12.6875 C1.41099609 11.91470703 1.13449219 11.14191406 0.84960938 10.34570312 C-1.3079496 4.0251966 -1.3079496 4.0251966 0 0 Z " fill="#00A8CF" transform="translate(28,23)"/>
<path d="M0 0 C1.65 0 3.3 0 5 0 C4.67 8.25 4.34 16.5 4 25 C3.01 25 2.02 25 1 25 C0.67 16.75 0.34 8.5 0 0 Z " fill="#272E7C" transform="translate(37,14)"/>
<path d="M0 0 C6.71539173 1.29975324 12.72019113 3.29928888 19 6 C19 6.99 19 7.98 19 9 C12.11168659 9.62621031 6.41097745 7.35806067 0 5 C0 3.35 0 1.7 0 0 Z " fill="#272F7D" transform="translate(0,42)"/>
<path d="M0 0 C6.93 0 13.86 0 21 0 C21 1.32 21 2.64 21 4 C14.07 4 7.14 4 0 4 C0 2.68 0 1.36 0 0 Z " fill="#00A7CF" transform="translate(6,55)"/>
<path d="M0 0 C0.99 0.33 1.98 0.66 3 1 C1.63784946 4.62371148 0.02523511 7.91384974 -1.9375 11.25 C-2.44152344 12.12140625 -2.94554687 12.9928125 -3.46484375 13.890625 C-5 16 -5 16 -8 17 C-8.66 16.67 -9.32 16.34 -10 16 C-9.44151174 11.81641523 -6.95553698 8.97370431 -4.4375 5.75 C-4.01275391 5.19570312 -3.58800781 4.64140625 -3.15039062 4.0703125 C-2.10601659 2.70910589 -1.05377536 1.35394167 0 0 Z " fill="#272E7C" transform="translate(29,68)"/>
<path d="M0 0 C0 1.32 0 2.64 0 4 C-5.93317878 6.10396411 -11.82777121 7.75971762 -18 9 C-18.33 7.68 -18.66 6.36 -19 5 C-16.39741676 4.16142312 -13.79314353 3.32896656 -11.1875 2.5 C-10.08051758 2.14228516 -10.08051758 2.14228516 -8.95117188 1.77734375 C-5.86744804 0.80059864 -3.25504191 0 0 0 Z " fill="#272F7D" transform="translate(20,62)"/>
<path d="M0 0 C3.02881176 2.85064637 5.77504073 5.81255092 8.375 9.0625 C9.16003906 10.03896484 9.16003906 10.03896484 9.9609375 11.03515625 C11 13 11 13 10.6640625 15.24609375 C10.44492187 15.82488281 10.22578125 16.40367188 10 17 C8.265625 16.90234375 8.265625 16.90234375 6 16 C4.40730442 13.86381158 3.07283413 11.8529628 1.75 9.5625 C1.38648438 8.96373047 1.02296875 8.36496094 0.6484375 7.74804688 C-2 3.30245536 -2 3.30245536 -2 1 C-1.34 0.67 -0.68 0.34 0 0 Z " fill="#272E7C" transform="translate(49,68)"/>
<path d="M0 0 C0.99 0.33 1.98 0.66 3 1 C2.39297368 7.6772895 0.22368606 13.70127996 -2 20 C-3.32 19.67 -4.64 19.34 -6 19 C-4.3186083 12.51292846 -2.46937673 6.2322365 0 0 Z " fill="#00A9D0" transform="translate(37,59)"/>
<path d="M0 0 C1.765625 0.16796875 1.765625 0.16796875 4 1 C5.921875 3.36328125 5.921875 3.36328125 7.75 6.3125 C8.67039062 7.76076172 8.67039062 7.76076172 9.609375 9.23828125 C11 12 11 12 11 16 C7.22388547 14.48273502 5.2305492 12.25848293 2.6875 9.125 C1.96949219 8.26132812 1.25148438 7.39765625 0.51171875 6.5078125 C-1 4 -1 4 -0.73046875 1.6796875 C-0.48941406 1.12539063 -0.24835937 0.57109375 0 0 Z " fill="#272C7B" transform="translate(23,33)"/>
<path d="M0 0 C4.10523256 0.54687823 6.54924455 1.78523583 9.8125 4.3125 C10.60269531 4.90675781 11.39289063 5.50101562 12.20703125 6.11328125 C14 8 14 8 14 12 C10.11749407 11.40129582 7.78304956 9.54611851 4.75 7.125 C3.85796875 6.42632812 2.9659375 5.72765625 2.046875 5.0078125 C1.37140625 4.34523438 0.6959375 3.68265625 0 3 C0 2.01 0 1.02 0 0 Z " fill="#00A7CF" transform="translate(54,67)"/>
<path d="M0 0 C0.33 1.32 0.66 2.64 1 4 C-1.10063576 4.69821417 -3.20565737 5.38324472 -5.3125 6.0625 C-6.48425781 6.44535156 -7.65601563 6.82820313 -8.86328125 7.22265625 C-12 8 -12 8 -15 7 C-14.67 5.68 -14.34 4.36 -14 3 C-13.37351563 2.86722656 -12.74703125 2.73445313 -12.1015625 2.59765625 C-11.28429688 2.42105469 -10.46703125 2.24445312 -9.625 2.0625 C-8.81289063 1.88847656 -8.00078125 1.71445312 -7.1640625 1.53515625 C-0.95620438 0 -0.95620438 0 0 0 Z " fill="#272E7C" transform="translate(64,47)"/>
<path d="M0 0 C1.32 0 2.64 0 4 0 C3.45144652 4.571279 2.58255197 8.67435795 1 13 C0.01 12.67 -0.98 12.34 -2 12 C-1.85831863 10.56208484 -1.71148957 9.1246763 -1.5625 7.6875 C-1.48128906 6.88699219 -1.40007813 6.08648437 -1.31640625 5.26171875 C-1 3 -1 3 0 0 Z " fill="#00A7CF" transform="translate(29,81)"/>
<path d="M0 0 C-1.38827146 3.35498935 -2.85585774 5.15050455 -6 7 C-7.32 7 -8.64 7 -10 7 C-10 6.01 -10 5.02 -10 4 C-8.57421875 2.578125 -8.57421875 2.578125 -6.6875 1.25 C-6.07261719 0.80140625 -5.45773438 0.3528125 -4.82421875 -0.109375 C-3 -1 -3 -1 0 0 Z " fill="#00AAD1" transform="translate(59,43)"/>
<path d="M0 0 C1.32 0 2.64 0 4 0 C3.34 2.97 2.68 5.94 2 9 C0.68 9.33 -0.64 9.66 -2 10 C-1.34 6.7 -0.68 3.4 0 0 Z " fill="#00ACD4" transform="translate(55,0)"/>
<path d="M0 0 C3.37462715 0.54723683 5.08235 1.0549 8 3 C7.67 3.99 7.34 4.98 7 6 C2.25 5.25 2.25 5.25 0 3 C0 2.01 0 1.02 0 0 Z " fill="#00A7CF" transform="translate(45,61)"/>
</svg>
